<svg xmlns="http://www.w3.org/2000/svg" viewBox="0 0 302 114"><path d="M29.81 35.57c4.5-5.19 11.58-7.47 20-7.13-18.14-8.77-35.54-9.19-43.93.5-11.73 13.53-1.45 41.65 23 62.82 15 13 32 20.39 45.46 20.94a98.64 98.64 0 0 1-21.5-14.31c-24.4-21.16-34.69-49.28-23-62.82" fill="#444"/><path d="M90.34 26.19C90.34 12.25 70.94 1 47 1 34.69 1 23.6 4 15.72 8.8a57 57 0 0 1 8-.54c21.11 0 38.23 11 38.23 24.67 0 7.38-5 14-13 18.52 23-.58 41.41-11.64 41.41-25.21" fill="#393"/><path d="M118.12 109.83a4.23 4.23 0 0 1-3.65 1.83 5.24 5.24 0 0 1 0-10.48 4.07 4.07 0 0 1 3.39 1.56l-.75.65a3.12 3.12 0 0 0-2.64-1.36 4.39 4.39 0 0 0 0 8.77 3.55 3.55 0 0 0 2.91-1.55zM129.41 102.29h2c1.93 0 2.3 1.08 2.3 1.76s-.37 1.78-2.3 1.78h-2zm-.91 9.1h.91v-4.73h1.71l2.76 4.73h1.05l-2.86-4.78a2.5 2.5 0 0 0 2.51-2.56c0-2.61-2.73-2.61-3.5-2.61h-2.58zM145.43 101.44h6.01v.85h-5.1v3.54h4.79v.83h-4.79v3.89h5.33v.84h-6.24v-9.95zM163.13 102.29H165c2.6 0 4.65 1.28 4.65 4.13s-2.05 4.13-4.65 4.13h-1.9zm-.91 9.1h3c5.11 0 5.34-4.24 5.34-5s-.23-5-5.34-5h-3zM181.33 101.44h.92v9.95h-.92zM195.82 102.29h-3.36v-.85h7.63v.85h-3.36v9.1h-.91v-9.1zM232.42 107.58c0 2.12-.91 4.08-3.6 4.08s-3.57-2-3.57-4.08v-6.14h.92v5.91c0 1.41.37 3.45 2.65 3.45s2.68-2 2.68-3.45v-5.91h.92zM243.62 101.44h1.19l5.98 8.71h.04v-8.71h.91v9.95h-1.18l-5.99-8.72h-.03v8.72h-.92v-9.95zM263.12 101.44h.92v9.95h-.92zM275.7 106.41a4.18 4.18 0 1 1 4.16 4.39 4.09 4.09 0 0 1-4.16-4.39m-.92 0a5.09 5.09 0 1 0 5.08-5.23 5 5 0 0 0-5.08 5.23M292.71 101.44h1.17l5.99 8.71h.04v-8.71h.92v9.95h-1.18l-6-8.72h-.03v8.72h-.91v-9.95zM108.74 90.23h192.09v2.55H108.74zM123.7 21.32h-15.11v1.43h.18c4.36.68 4.36.68 4.36 5.08V53h5.68V39.13h1.46c5.93 0 13.3 0 13.3-9 .05-5.44-3.75-8.81-9.87-8.81zm-4.84 5.17c0-1.82.1-2.56 2.51-2.56 4.16 0 6.58 1 6.58 6 0 5.82-3.65 6.57-6.82 6.57h-2.27zM153.73 37.67c4.84-.85 7.19-3.41 7.19-7.82 0-8.53-9.94-8.53-13.69-8.53h-12v1.43h.18c4.32.68 4.32.68 4.32 5.08V53h5.69V38.57h2.62l8.39 14.35.06.11h6zm1.5-7.54c0 3.87-2.44 5.87-7.23 5.87h-2.5v-8.11c0-3.35 0-4 3-4 4.65.04 6.73 1.95 6.73 6.24zM186.16 45.85v.2c-.3 3.69-1.61 4.36-4.08 4.36h-5.31c-2.34 0-2.78-.07-2.78-2.48V37.77h5.55c2.56 0 3.7 1.17 3.7 3.8v.21H185V31.59h-1.73l-.05.24c-.27 1.49-.61 3.34-3.69 3.34H174v-9c0-2 .42-2.2 2.78-2.2h3.73c3.51 0 4.94 1.3 4.94 4.48v.21h1.77l-.14-7.3h-23.33v1.42h.24c4.29.68 4.29.68 4.29 5.07V53h19.49l.15-7.18zM220.19 21.32L211 46.69l-9.3-25.23-.06-.14h-11.2v1.41l.94.18c3.36.64 3.8.72 3.8 4.58V53h3.43V26.38l9.67 26.5v.14H212l9.76-26.91V53H227V21.32zM231.84 21.88h-.19v1.4h.19c4.59.59 4.59.59 4.59 4.33V53h5.67V20.78zM269.08 45.85v.2c-.29 3.67-1.65 4.36-4.08 4.36h-5.31c-2.36 0-2.8-.07-2.8-2.48V37.77h5.56c2.57 0 3.72 1.17 3.72 3.8v.21h1.75V31.59h-1.72l-.05.25c-.29 1.48-.64 3.33-3.71 3.33h-5.56v-9c0-2 .42-2.2 2.8-2.2h3.72c3.52 0 5 1.3 5 4.48v.21h1.77l-.14-7.3h-23.36v1.42h.25c4.28.68 4.28.68 4.28 5.07V53h19.49l.14-7.18zM291.94 37.67c4.84-.85 7.19-3.41 7.19-7.82 0-8.53-9.95-8.53-13.69-8.53h-11.95v1.43h.18c4.3.68 4.3.68 4.3 5.08V53h5.69V38.57h2.62l8.39 14.35.07.11h6zm1.5-7.54C293.44 34 291 36 286.2 36h-2.5v-8.11c0-3.35 0-4 3-4 4.66.04 6.74 1.95 6.74 6.24zM133.86 83.34V63.61h-.08l-8 19.73H123l-8-19.52v19.52h-2.42V65.27c0-3.08-.57-2.95-3.79-3.51V61h8.7L125 79.32h.07L132.52 61h5.17v22.34zM147 83.34v-17.8c0-3.19 0-3.28-3.64-3.78V61h18.35l.11 4.91h-1.07c0-2.49-1.42-3.36-4.13-3.36h-3c-1.76 0-2.41 0-2.41 1.73v6.6h4.63c2.18 0 2.8-.87 3.14-2.55h1.07v7H159c0-1.86-.92-2.85-3.14-2.85h-4.63v7.39c0 1.82.45 1.92 2.41 1.92h4.24c2.61 0 3.26-1.13 3.46-3.25h1.07l-.12 4.81zM193.54 83.34V63.61h-.08l-8 19.73h-2.71l-8-19.52h-.09v19.52h-2.41V65.27c0-3.08-.57-2.95-3.78-3.51V61h8.68l7.58 18.29h.08L192.2 61h5.16v22.34zM207 83.34V65.53c0-3.14 0-3.31-3.64-3.77V61h11.37c4.25 0 9.07.83 9.07 5.37 0 2.65-1.84 4.27-4.6 5v.07c3.76.64 5.9 2.46 5.9 5.9 0 5.14-5.78 5.94-10.45 5.94zm6.77-12.56c3.37 0 5.82-1 5.82-4.22s-2.18-4-5.44-4c-1.79 0-2.94-.12-2.94 1.73v6.47zm-2.56 1.56v8.08c0 1.55 2.44 1.36 3.67 1.36 4 0 6-1.46 6-5 0-3.28-2.82-4.43-6.19-4.43zM234.61 83.34v-17.8c0-3.19 0-3.28-3.64-3.78V61h18.34l.11 4.91h-1.06c0-2.49-1.43-3.36-4.14-3.36h-3c-1.76 0-2.41 0-2.41 1.73v6.6h4.63c2.18 0 2.79-.87 3.14-2.55h1.07v7h-1.07c0-1.86-.92-2.85-3.14-2.85h-4.63v7.39c0 1.82.46 1.92 2.41 1.92h4.25c2.6 0 3.25-1.13 3.45-3.25H250l-.12 4.81zM273.07 83.34L266.3 73h-2.38v10.34h-4.21V65.53c0-3.18 0-3.31-3.64-3.77V61h9.84c4.63 0 10.37.86 10.37 5.94 0 3.34-2.22 5-5.86 5.47l7.06 10.9zm-7-11.87c3.33 0 6-1.06 6-4.31s-2-4.58-5.6-4.58c-2.75 0-2.56.9-2.56 3v5.9zM284.7 80.15a17.22 17.22 0 0 0 7.31 2c2.9 0 4.78-1.24 4.78-3.89 0-5.36-12.44-4.87-12.44-11.86 0-4.31 4.33-5.73 8.61-5.73a38.1 38.1 0 0 1 6.13.59v2.46a18.45 18.45 0 0 0-6.86-1.5c-2.3 0-3.67 1.23-3.67 3.22 0 5.1 12.44 4.64 12.44 11.73 0 4.94-4.67 6.53-9.61 6.53a32.51 32.51 0 0 1-6.69-.86z" fill="#444"/></svg>